<?xml version="1.0" encoding="utf-8"?>
<!-- Generator: Adobe Illustrator 16.0.5, SVG Export Plug-In . SVG Version: 6.00 Build 0)  -->
<!DOCTYPE svg PUBLIC "-//W3C//DTD SVG 1.1//EN" "http://www.w3.org/Graphics/SVG/1.1/DTD/svg11.dtd">
<svg version="1.1" id="Layer_1" xmlns="http://www.w3.org/2000/svg" xmlns:xlink="http://www.w3.org/1999/xlink" x="0px" y="0px"
	 width="82.192px" height="83.808px" viewBox="0 0 82.192 83.808" enable-background="new 0 0 82.192 83.808" xml:space="preserve">
<path fill="#010101" d="M80.791,8.079h-4.518C75.475,3.389,72.57,0,69.003,0H17.39c-3.57,0-6.475,3.389-7.273,8.079H1.401
	C0.628,8.079,0,8.705,0,9.479c0,0.775,0.628,1.401,1.401,1.401h8.49v71.526c0,0.772,0.628,1.401,1.4,1.401h51.609
	c0.773,0,1.401-0.629,1.401-1.401V70.818h10.799c0.772,0,1.401-0.628,1.401-1.4V10.88h4.288c0.773,0,1.401-0.626,1.401-1.401
	C82.192,8.705,81.564,8.079,80.791,8.079z M73.417,8.079h-8.825c0.173-0.799,0.417-1.542,0.725-2.201
	c0.007-0.014,0.014-0.029,0.02-0.043c0.078-0.162,0.159-0.316,0.243-0.468c0.015-0.026,0.027-0.053,0.042-0.078
	c0.082-0.142,0.167-0.278,0.253-0.411c0.021-0.03,0.041-0.061,0.059-0.09c0.085-0.125,0.176-0.245,0.263-0.36
	c0.025-0.032,0.051-0.063,0.075-0.094c0.089-0.109,0.18-0.212,0.272-0.311c0.029-0.032,0.059-0.062,0.09-0.094
	c0.092-0.091,0.184-0.178,0.277-0.26c0.037-0.032,0.074-0.061,0.11-0.091c0.091-0.074,0.183-0.144,0.275-0.208
	c0.047-0.031,0.093-0.058,0.138-0.086c0.088-0.055,0.176-0.108,0.266-0.154c0.059-0.029,0.117-0.052,0.176-0.077
	c0.081-0.036,0.162-0.072,0.245-0.1c0.078-0.027,0.16-0.044,0.24-0.063c0.064-0.016,0.131-0.037,0.193-0.047
	c0.15-0.025,0.299-0.04,0.451-0.04C71.005,2.802,72.755,5.042,73.417,8.079z M12.693,65.214H61.5v2.803H12.693V65.214z
	 M12.693,70.818H61.5v2.802H12.693V70.818z M17.39,2.802h46.515c-1.229,1.611-2.065,3.808-2.315,6.315
	c-0.004,0.023-0.007,0.044-0.009,0.068c-0.054,0.148-0.082,0.307-0.082,0.469v52.758H12.693V10.688
	C12.693,6.413,14.844,2.802,17.39,2.802z M12.693,81.005v-4.582H61.5v4.582H12.693z M73.698,68.017h-9.392V10.88H73.7L73.698,68.017
	L73.698,68.017z"/>
<g>
</g>
<g>
</g>
<g>
</g>
<g>
</g>
<g>
</g>
<g>
</g>
</svg>
