<?xml version="1.0" encoding="utf-8"?>
<!-- Generator: Adobe Illustrator 18.0.0, SVG Export Plug-In . SVG Version: 6.00 Build 0)  -->
<!DOCTYPE svg PUBLIC "-//W3C//DTD SVG 1.1//EN" "http://www.w3.org/Graphics/SVG/1.1/DTD/svg11.dtd">
<svg version="1.1" id="Layer_1" xmlns="http://www.w3.org/2000/svg" xmlns:xlink="http://www.w3.org/1999/xlink" x="0px" y="0px"
	 viewBox="0 0 529 65" enable-background="new 0 0 529 65" xml:space="preserve">
<g>
	<g>
		<path fill="none" d="M430.8,27.5c0-3.2-2.2-4.8-6.7-4.8h-1.7v10h1.5C428.4,32.7,430.8,30.9,430.8,27.5z"/>
		<path fill="none" d="M253.5,27.5c0-3.2-2.2-4.8-6.7-4.8h-1.7v10h1.5C251.3,32.7,253.5,30.9,253.5,27.5z"/>
		<polygon fill="none" points="163.2,37.6 173,37.6 168.3,26.9 		"/>
		<polygon fill="#161514" points="89.4,49.7 107.1,49.7 107.1,45.2 94.3,45.2 94.3,34.8 106.8,34.8 106.8,30.3 94.3,30.3 94.3,22.7 
			107.1,22.7 107.1,18.2 89.4,18.2 		"/>
		<polygon fill="#161514" points="117.5,18.2 112.7,18.2 112.7,49.7 126.9,49.7 126.9,45.2 117.5,45.2 		"/>
		<path fill="#161514" d="M143.1,30.9l-3.2-1.2c-2.3-1-3.5-2.2-3.5-3.7c0-1.1,0.5-2.1,1.4-2.7c0.9-0.7,2-1.1,3.3-1.1
			c1.1,0,2,0.2,2.7,0.6c0.6,0.4,1.4,1.2,2.1,2.5l3.9-2.2c-2.1-3.5-4.9-5.3-8.6-5.3c-2.7,0-5.1,0.7-6.9,2.3c-1.8,1.6-2.7,3.6-2.7,5.9
			c0,3.5,2.2,6.2,6.5,8l3.1,1.2c0.9,0.4,1.5,0.7,2.1,1.1c0.6,0.4,1.1,0.7,1.5,1.2c0.4,0.4,0.6,0.9,0.9,1.4c0.1,0.5,0.2,1.1,0.2,1.7
			c0,1.5-0.5,2.7-1.5,3.8c-1,1-2.2,1.5-3.8,1.5c-2,0-3.3-0.6-4.3-2.1c-0.5-0.7-1-2-1.1-3.8l-4.9,1.1c0.5,3,1.6,5.2,3.3,6.8
			c1.8,1.6,4.1,2.5,6.9,2.5c3,0,5.4-1,7.4-2.8s3-4.3,3-7.2c0-2.2-0.6-3.9-1.8-5.4C147.6,33.3,145.7,32,143.1,30.9z"/>
		<path fill="#161514" d="M163.7,15.2c0.9,0,1.5-0.2,2.1-0.9c0.6-0.6,0.9-1.2,0.9-2.1s-0.2-1.5-0.9-2.1c-0.6-0.6-1.2-0.9-2.1-0.9
			c-0.9,0-1.5,0.2-2.1,0.9c-0.6,0.6-0.9,1.2-0.9,2s0.2,1.5,0.9,2.1C162.1,14.8,162.9,15.2,163.7,15.2z"/>
		<path fill="#161514" d="M173.1,15.2c0.9,0,1.5-0.2,2.1-0.9c0.6-0.6,0.9-1.2,0.9-2.1s-0.2-1.5-0.9-2.1c-0.6-0.6-1.2-0.9-2.1-0.9
			c-0.9,0-1.5,0.2-2.1,0.9c-0.6,0.6-0.9,1.2-0.9,2s0.2,1.5,0.9,2.1C171.5,14.8,172.2,15.2,173.1,15.2z"/>
		<path fill="#161514" d="M152.5,49.7h5.2l3.6-7.6h13.7l3.3,7.6h5.3l-15.3-33.4L152.5,49.7z M163.2,37.6l4.9-10.7l4.8,10.7H163.2z"
			/>
		<polygon fill="#161514" points="211.6,18.2 205,18.2 192.6,30.8 192.6,18.2 187.6,18.2 187.6,49.7 192.6,49.7 192.6,36.7 
			193.6,35.7 205.2,49.7 211.6,49.7 197,32.5 		"/>
		<polygon fill="#161514" points="215.9,49.7 233.6,49.7 233.6,45.2 220.8,45.2 220.8,34.8 233.3,34.8 233.3,30.3 220.8,30.3 
			220.8,22.7 233.6,22.7 233.6,18.2 215.9,18.2 		"/>
		<path fill="#161514" d="M256.3,33.3c1.4-1.6,2-3.6,2-5.8c0-2.8-1-5.2-3.1-6.9c-1.8-1.6-4.9-2.3-9.2-2.3h-5.7v31.4h4.8V36.8h0.9
			l9.1,12.8h5.9l-10-13.4C253.2,35.9,255,34.9,256.3,33.3z M245.1,32.7v-10h1.7c4.4,0,6.7,1.6,6.7,4.8c0,3.5-2.3,5.2-6.9,5.2
			L245.1,32.7L245.1,32.7z"/>
		<polygon fill="#161514" points="283.9,30.6 270.1,30.6 270.1,18.2 265.2,18.2 265.2,49.7 270.1,49.7 270.1,35 283.9,35 
			283.9,49.7 288.7,49.7 288.7,18.2 283.9,18.2 		"/>
		<polygon fill="#161514" points="294.7,49.7 312.4,49.7 312.4,45.2 299.5,45.2 299.5,34.8 312,34.8 312,30.3 299.5,30.3 
			299.5,22.7 312.4,22.7 312.4,18.2 294.7,18.2 		"/>
		<polygon fill="#161514" points="317,22.7 324.4,22.7 324.4,49.7 329.2,49.7 329.2,22.7 336.6,22.7 336.6,18.2 317,18.2 		"/>
		<path fill="#161514" d="M351.4,30.9l-3.2-1.2c-2.3-1-3.5-2.2-3.5-3.7c0-1.1,0.5-2.1,1.4-2.7c0.9-0.7,2-1.1,3.3-1.1
			c1.1,0,2,0.2,2.7,0.6c0.6,0.4,1.4,1.2,2.1,2.5l3.9-2.2c-2.1-3.5-4.9-5.3-8.6-5.3c-2.7,0-5.1,0.7-6.9,2.3c-1.8,1.6-2.7,3.6-2.7,5.9
			c0,3.5,2.2,6.2,6.5,8l3.1,1.2c0.9,0.4,1.5,0.7,2.1,1.1c0.6,0.4,1.1,0.7,1.5,1.2c0.4,0.4,0.6,0.9,0.9,1.4c0.1,0.5,0.2,1.1,0.2,1.7
			c0,1.5-0.5,2.7-1.5,3.8c-1,1-2.2,1.5-3.8,1.5c-2,0-3.3-0.6-4.3-2.1c-0.6-0.7-1-2-1.1-3.8l-4.9,1.1c0.5,3,1.6,5.2,3.3,6.8
			c1.8,1.6,4.1,2.5,6.9,2.5c3,0,5.4-1,7.4-2.8c2-1.8,3-4.3,3-7.2c0-2.2-0.6-3.9-1.8-5.4C355.8,33.3,353.9,32,351.4,30.9z"/>
		<polygon fill="#161514" points="375.2,40.1 366.3,18.2 361,18.2 375,52 389.5,18.2 384.2,18.2 		"/>
		<polygon fill="#161514" points="393.4,49.7 411.2,49.7 411.2,45.2 398.2,45.2 398.2,34.8 410.8,34.8 410.8,30.3 398.2,30.3 
			398.2,22.7 411.2,22.7 411.2,18.2 393.4,18.2 		"/>
		<path fill="#161514" d="M433.5,33.3c1.4-1.6,2-3.6,2-5.8c0-2.8-1-5.2-3.1-6.9c-1.8-1.6-4.9-2.3-9.2-2.3h-5.7v31.4h4.8V36.8h0.9
			l9.1,12.8h5.9l-10-13.4C430.5,35.9,432.2,34.9,433.5,33.3z M422.4,32.7v-10h1.7c4.4,0,6.7,1.6,6.7,4.8c0,3.5-2.3,5.2-6.9,5.2
			L422.4,32.7L422.4,32.7z"/>
		<polygon fill="#161514" points="465.8,18.2 459.2,18.2 446.8,30.8 446.8,18.2 441.8,18.2 441.8,49.7 446.8,49.7 446.8,36.7 
			447.8,35.7 459.4,49.7 465.8,49.7 451.2,32.5 		"/>
		<polygon fill="#161514" points="468.8,49.7 486.6,49.7 486.6,45.2 473.8,45.2 473.8,34.8 486.2,34.8 486.2,30.3 473.8,30.3 
			473.8,22.7 486.6,22.7 486.6,18.2 468.8,18.2 		"/>
		<polygon fill="#161514" points="490.2,18.2 490.2,22.7 497.6,22.7 497.6,49.7 502.4,49.7 502.4,22.7 509.8,22.7 509.8,18.2 		"/>
	</g>
	<path fill="#EF7C00" d="M32.7,0.9C15.2,0.9,1,15,1,32.5s14.2,31.7,31.7,31.7c14.4,0,26.4-9.1,30.2-22.4c-2.1,0-2.3,0-5.2,0
		c-3.6,10.5-13.3,17.5-25,17.5c-14.8,0-26.8-12-26.8-26.8s12-26.8,26.8-26.8c13.9,0,25.3,10.6,26.6,24.2h-4.9
		c-1.2-10.8-10.5-19.2-21.6-19.2C20.7,10.7,11,20.5,11,32.5s9.7,21.8,21.8,21.8c9,0,16.4-4.8,19.7-12.6c-3,0-2.8,0-5.5,0
		c-3,4.9-8,7.6-14.2,7.6c-9.2,0-16.9-7.5-16.9-16.9c0-9.4,7.5-16.9,16.9-16.9c8.4,0,15.4,6.2,16.6,14.3H30.6c-3,0-3,5.2,0,5.2h33.8
		c0.1-0.9,0.1-1.7,0.1-2.6c0-0.9,0-1.7-0.1-2.6C62.9,13.7,49.3,0.9,32.7,0.9z"/>
</g>
</svg>
