<?xml version="1.0" encoding="utf-8"?>
<!-- Generator: Adobe Illustrator 18.1.1, SVG Export Plug-In . SVG Version: 6.00 Build 0)  -->
<svg version="1.1" id="Layer_1" xmlns="http://www.w3.org/2000/svg" xmlns:xlink="http://www.w3.org/1999/xlink" x="0px" y="0px"
	 viewBox="0 0 149.5 149.5" enable-background="new 0 0 149.5 149.5" xml:space="preserve">
<path fill="#F05423" d="M69,127.3c-1.8,0-3.3,1.4-3.5,2.9h6.8C72.1,128.7,70.8,127.3,69,127.3"/>
<path fill="#F05423" d="M29.2,127.8c-2.6,0-4.3,2.1-4.3,4.5c0,2.6,1.9,4.5,4.4,4.5c1.7,0,3.1-0.8,4-2v-4.9
	C32.3,128.6,30.9,127.8,29.2,127.8"/>
<path fill="#F05423" d="M69.6,106.8v-4.9c-0.9-1.2-2.4-2-4.1-2c-2.6,0-4.3,2.1-4.3,4.5c0,2.6,1.9,4.5,4.4,4.5
	C67.3,108.8,68.7,108,69.6,106.8"/>
<path fill="#F05423" d="M17.4,77.2c2.5,0,4.4-1.9,4.4-4.5c0-2.4-1.7-4.5-4.3-4.5c-1.7,0-3.2,0.8-4.1,2v4.9
	C14.2,76.4,15.7,77.2,17.4,77.2"/>
<path fill="#F05423" d="M53.9,77.2c1.7,0,3.1-0.8,4-2v-4.9c-0.9-1.2-2.4-2-4.1-2c-2.6,0-4.3,2.1-4.3,4.5
	C49.5,75.3,51.4,77.2,53.9,77.2"/>
<path fill="#F05423" d="M34.4,99.3c-1.8,0-3.3,1.4-3.5,2.9h6.8C37.5,100.7,36.2,99.3,34.4,99.3"/>
<path fill="#F05423" d="M49.4,127.8c-2.6,0-4.3,2.1-4.3,4.5c0,2.6,1.9,4.5,4.4,4.5c1.7,0,3.1-0.8,4-2v-4.9
	C52.6,128.6,51.1,127.8,49.4,127.8"/>
<path fill="#F05423" d="M129.7,112.6l-7-7.1v7.1h-4.4V88.4h4.4v13l5.7-5.3h6.2l-8.1,7.4l9.1,9.1H129.7z M114.1,92.8h-4.4v-4.4h4.4
	V92.8z M114.1,112.6h-4.4V96.1h4.4V112.6z M105.7,112.6h-4.4v-8.9c0-1.5-0.3-2.2-0.8-2.8c-0.7-0.7-1.6-1-2.5-1c-1.9,0-3.4,1.3-4,2.2
	c0.1,0.5,0.1,1.2,0.1,1.8v8.7h-4.4v-8.9c0-1.5-0.3-2.2-0.8-2.8c-0.7-0.7-1.6-1-2.5-1c-1.9,0-3.2,1.3-3.8,2v10.7h-4.4V96.1h4.3v1.3
	c1.3-1.2,2.9-1.7,4.5-1.7c2.2,0,4.3,1,5.5,2.6c1.3-1.4,3.4-2.6,5.9-2.6c2.3,0,4.5,1,5.8,2.7c1.1,1.3,1.7,3,1.7,5.4V112.6z
	 M92.1,127.8h-5.4v6.3c0,1,0.2,1.6,0.5,2.1c0.4,0.5,1.2,0.8,2.2,0.8c0.6,0,1.5-0.1,1.8-0.2l0.7,3.7c-0.6,0.2-1.9,0.3-2.8,0.3
	c-2.7,0-4.6-0.9-5.7-2.4c-0.8-1.1-1.2-2.6-1.2-4.9v-5.8h-3.9V124h3.9v-4.6h4.4v4.6h5.4V127.8z M76.7,133.4H65.3
	c0.2,2.3,2.1,3.9,4.5,3.9c1.9,0,3.4-1.1,4.1-1.9l2.5,2.5c-1.6,1.9-4.2,3-6.8,3c-4.9,0-8.6-3.4-8.6-8.6c0-4.6,3.1-8.6,8-8.6
	c4.6,0,7.8,3.8,7.8,8.4C76.8,132.6,76.8,133,76.7,133.4 M58.9,110.1c-1.3-1.5-2.1-3.5-2.1-5.8c0-4.9,3.6-8.6,8.1-8.6
	c1.9,0,3.5,0.6,4.8,1.7v-1.3H74v16.5h-4.3v-1.3c-1.4,1.2-2.9,1.7-4.6,1.7C62.7,112.9,60.4,111.8,58.9,110.1 M57.9,140.5h-4.3v-1.3
	c-1.4,1.2-2.9,1.7-4.6,1.7c-2.5,0-4.8-1.1-6.2-2.8c-1.3-1.5-2.1-3.5-2.1-5.8c0-4.9,3.6-8.6,8.1-8.6c1.8,0,3.4,0.5,4.7,1.5v-8.8h4.4
	V140.5z M37.7,140.5h-4.3v-1.3c-1.4,1.2-2.9,1.7-4.6,1.7c-2.4,0-4.8-1.1-6.2-2.8c-1.3-1.5-2.1-3.5-2.1-5.8c0-4.9,3.6-8.6,8.1-8.6
	c1.9,0,3.5,0.6,4.8,1.7V124h4.3V140.5z M13.4,105.4v7.1H9V88.4h4.4v13l5.7-5.3h6.2l-8.1,7.4l9.1,9.1h-6L13.4,105.4z M19,127.9
	c-0.3-0.1-1-0.2-1.6-0.2c-1.9,0-3.5,1.4-4,2.4v10.4H9V124h4.3v1.7c1-1.2,2.8-2,4.8-2c0.6,0,1,0.1,1.5,0.1L19,127.9z M9,56.8h4.4v8.8
	c1.3-1,2.9-1.5,4.7-1.5c4.5,0,8.1,3.7,8.1,8.6c0,2.2-0.8,4.3-2.1,5.8c-1.5,1.7-3.8,2.8-6.2,2.8c-1.7,0-3.2-0.5-4.6-1.7v1.3H9V56.8z
	 M31.8,121.7h-4.4v-4.4h4.4V121.7z M35.1,109.3c1.9,0,3.4-1.1,4.2-1.9l2.5,2.5c-1.6,1.9-4.2,3-6.8,3c-4.9,0-8.6-3.4-8.6-8.6
	c0-4.6,3.1-8.6,8-8.6c4.6,0,7.8,3.8,7.8,8.4c0,0.4,0,0.9-0.1,1.3H30.7C30.9,107.7,32.8,109.3,35.1,109.3 M31,64.4l4.8,9.9l4.5-9.9
	H45L33.6,89.1H29l4.6-9.8l-7.4-14.8H31z M54.3,95.7c0.6,0,1,0.1,1.5,0.1l-0.5,4.1c-0.3-0.1-1-0.2-1.6-0.2c-1.9,0-3.5,1.4-4,2.4v10.4
	h-4.4V96.1h4.3v1.7C50.5,96.5,52.3,95.7,54.3,95.7 M53.2,64.1c1.9,0,3.5,0.6,4.8,1.7v-1.3h4.3V80c0,3-0.5,4.7-1.5,6.1
	c-1.5,2.1-4.1,3.3-7.3,3.3c-3.2,0-6.3-1.5-7.9-3.4l2.8-2.9c0.9,1,2.4,2.4,5.1,2.4c1.4,0,2.6-0.4,3.4-1.3c0.7-0.7,1-1.8,1-3.9v-0.5
	c-1.3,1-2.8,1.5-4.4,1.5c-2.4,0-4.8-1.1-6.3-2.8c-1.3-1.5-2.1-3.5-2.1-5.8C45.1,67.8,48.7,64.1,53.2,64.1 M73.5,64.1
	c1.9,0,3.5,0.6,4.8,1.7v-1.3h4.3V80c0,3-0.5,4.7-1.5,6.1c-1.5,2.1-4.2,3.3-7.3,3.3c-3.2,0-6.3-1.5-7.9-3.4l2.8-2.9
	c0.9,1,2.4,2.4,5.1,2.4c1.4,0,2.6-0.4,3.4-1.3c0.7-0.7,1-1.8,1-3.9v-0.5c-1.3,1-2.8,1.5-4.4,1.5c-2.5,0-4.8-1.1-6.3-2.8
	c-1.3-1.5-2.1-3.5-2.1-5.8C65.4,67.8,69,64.1,73.5,64.1 M147.3,0H2.2C1,0,0,1,0,2.2v145c0,1.2,1,2.2,2.2,2.2h145
	c1.2,0,2.2-1,2.2-2.2V2.2C149.5,1,148.5,0,147.3,0"/>
<path fill="#F05423" d="M74.2,77.2c1.7,0,3.1-0.8,4-2v-4.9c-0.9-1.2-2.4-2-4.1-2c-2.6,0-4.3,2.1-4.3,4.5
	C69.8,75.3,71.7,77.2,74.2,77.2"/>
</svg>
